<mxfile host="app.diagrams.net" modified="2024-05-30T10:56:15.336Z" agent="Mozilla/5.0 (Macintosh; Intel Mac OS X 10_15_7) AppleWebKit/605.1.15 (KHTML, like Gecko) Version/17.5 Safari/605.1.15" version="24.4.10" etag="cOuTdmfdcanV28O494Rk" type="github">
  <diagram name="Page-1" id="sBZdZkM8wiBfGxRlf7Jm">
    <mxGraphModel>
      <root>
        <mxCell id="0" />
        <mxCell id="1" parent="0" />
      </root>
    </mxGraphModel>
  </diagram>
</mxfile>
